%TF.GenerationSoftware,KiCad,Pcbnew,8.0.8*%
%TF.CreationDate,2025-01-21T12:15:44+05:30*%
%TF.ProjectId,555Timer,35353554-696d-4657-922e-6b696361645f,v1*%
%TF.SameCoordinates,Original*%
%TF.FileFunction,Legend,Top*%
%TF.FilePolarity,Positive*%
%FSLAX46Y46*%
G04 Gerber Fmt 4.6, Leading zero omitted, Abs format (unit mm)*
G04 Created by KiCad (PCBNEW 8.0.8) date 2025-01-21 12:15:44*
%MOMM*%
%LPD*%
G01*
G04 APERTURE LIST*
%ADD10C,0.125000*%
%ADD11C,0.150000*%
%ADD12C,0.120000*%
G04 APERTURE END LIST*
D10*
G36*
X77422930Y-62247179D02*
G01*
X77422930Y-61909538D01*
X77094082Y-61909538D01*
X77094082Y-61759475D01*
X77422930Y-61759475D01*
X77422930Y-61421833D01*
X77563028Y-61421833D01*
X77563028Y-61759475D01*
X77891877Y-61759475D01*
X77891877Y-61909538D01*
X77563028Y-61909538D01*
X77563028Y-62247179D01*
X77422930Y-62247179D01*
G37*
G36*
X78050146Y-62097116D02*
G01*
X78206071Y-62078358D01*
X78221343Y-62137675D01*
X78248458Y-62191419D01*
X78286378Y-62233110D01*
X78337307Y-62264545D01*
X78395573Y-62281471D01*
X78438492Y-62284695D01*
X78502303Y-62277425D01*
X78559644Y-62255614D01*
X78610517Y-62219264D01*
X78619916Y-62210249D01*
X78659019Y-62158787D01*
X78681830Y-62104345D01*
X78692909Y-62042207D01*
X78694068Y-62012120D01*
X78688411Y-61950092D01*
X78668856Y-61890363D01*
X78635334Y-61840309D01*
X78622554Y-61827179D01*
X78573718Y-61791476D01*
X78516239Y-61768996D01*
X78457118Y-61760070D01*
X78435854Y-61759475D01*
X78375716Y-61764468D01*
X78317258Y-61780898D01*
X78306308Y-61785560D01*
X78254944Y-61815528D01*
X78215743Y-61853264D01*
X78076524Y-61834506D01*
X78193468Y-61215497D01*
X78794598Y-61215497D01*
X78794598Y-61365560D01*
X78312170Y-61365560D01*
X78247103Y-61696167D01*
X78295195Y-61662363D01*
X78351427Y-61633897D01*
X78409015Y-61616274D01*
X78467958Y-61609497D01*
X78475422Y-61609412D01*
X78542294Y-61614685D01*
X78604427Y-61630505D01*
X78661818Y-61656872D01*
X78714470Y-61693786D01*
X78742428Y-61719614D01*
X78784911Y-61770729D01*
X78816960Y-61827902D01*
X78838575Y-61891135D01*
X78848796Y-61950156D01*
X78851458Y-62002741D01*
X78848099Y-62062933D01*
X78835689Y-62129173D01*
X78814135Y-62191121D01*
X78783436Y-62248777D01*
X78755910Y-62287332D01*
X78709298Y-62337434D01*
X78656731Y-62377169D01*
X78598208Y-62406539D01*
X78533729Y-62425543D01*
X78475447Y-62433462D01*
X78438492Y-62434757D01*
X78378746Y-62431512D01*
X78314434Y-62419520D01*
X78255928Y-62398693D01*
X78203229Y-62369031D01*
X78169141Y-62342434D01*
X78127884Y-62299039D01*
X78095154Y-62249893D01*
X78070951Y-62194998D01*
X78055275Y-62134352D01*
X78050146Y-62097116D01*
G37*
G36*
X79390160Y-62416000D02*
G01*
X78921800Y-61196739D01*
X79095017Y-61196739D01*
X79408918Y-62076893D01*
X79429353Y-62135365D01*
X79447795Y-62191751D01*
X79465947Y-62251955D01*
X79472519Y-62275316D01*
X79490963Y-62213371D01*
X79509031Y-62157573D01*
X79528490Y-62101728D01*
X79537585Y-62076893D01*
X79864089Y-61196739D01*
X80027341Y-61196739D01*
X79554291Y-62416000D01*
X79390160Y-62416000D01*
G37*
D11*
X82666666Y-77454819D02*
X82333333Y-76978628D01*
X82095238Y-77454819D02*
X82095238Y-76454819D01*
X82095238Y-76454819D02*
X82476190Y-76454819D01*
X82476190Y-76454819D02*
X82571428Y-76502438D01*
X82571428Y-76502438D02*
X82619047Y-76550057D01*
X82619047Y-76550057D02*
X82666666Y-76645295D01*
X82666666Y-76645295D02*
X82666666Y-76788152D01*
X82666666Y-76788152D02*
X82619047Y-76883390D01*
X82619047Y-76883390D02*
X82571428Y-76931009D01*
X82571428Y-76931009D02*
X82476190Y-76978628D01*
X82476190Y-76978628D02*
X82095238Y-76978628D01*
X83095238Y-76931009D02*
X83428571Y-76931009D01*
X83571428Y-77454819D02*
X83095238Y-77454819D01*
X83095238Y-77454819D02*
X83095238Y-76454819D01*
X83095238Y-76454819D02*
X83571428Y-76454819D01*
X84333333Y-76931009D02*
X84000000Y-76931009D01*
X84000000Y-77454819D02*
X84000000Y-76454819D01*
X84000000Y-76454819D02*
X84476190Y-76454819D01*
X85000000Y-76454819D02*
X85000000Y-76692914D01*
X84761905Y-76597676D02*
X85000000Y-76692914D01*
X85000000Y-76692914D02*
X85238095Y-76597676D01*
X84857143Y-76883390D02*
X85000000Y-76692914D01*
X85000000Y-76692914D02*
X85142857Y-76883390D01*
X85761905Y-76454819D02*
X85761905Y-76692914D01*
X85523810Y-76597676D02*
X85761905Y-76692914D01*
X85761905Y-76692914D02*
X86000000Y-76597676D01*
X85619048Y-76883390D02*
X85761905Y-76692914D01*
X85761905Y-76692914D02*
X85904762Y-76883390D01*
X108666666Y-77454819D02*
X108333333Y-76978628D01*
X108095238Y-77454819D02*
X108095238Y-76454819D01*
X108095238Y-76454819D02*
X108476190Y-76454819D01*
X108476190Y-76454819D02*
X108571428Y-76502438D01*
X108571428Y-76502438D02*
X108619047Y-76550057D01*
X108619047Y-76550057D02*
X108666666Y-76645295D01*
X108666666Y-76645295D02*
X108666666Y-76788152D01*
X108666666Y-76788152D02*
X108619047Y-76883390D01*
X108619047Y-76883390D02*
X108571428Y-76931009D01*
X108571428Y-76931009D02*
X108476190Y-76978628D01*
X108476190Y-76978628D02*
X108095238Y-76978628D01*
X109095238Y-76931009D02*
X109428571Y-76931009D01*
X109571428Y-77454819D02*
X109095238Y-77454819D01*
X109095238Y-77454819D02*
X109095238Y-76454819D01*
X109095238Y-76454819D02*
X109571428Y-76454819D01*
X110333333Y-76931009D02*
X110000000Y-76931009D01*
X110000000Y-77454819D02*
X110000000Y-76454819D01*
X110000000Y-76454819D02*
X110476190Y-76454819D01*
X111000000Y-76454819D02*
X111000000Y-76692914D01*
X110761905Y-76597676D02*
X111000000Y-76692914D01*
X111000000Y-76692914D02*
X111238095Y-76597676D01*
X110857143Y-76883390D02*
X111000000Y-76692914D01*
X111000000Y-76692914D02*
X111142857Y-76883390D01*
X111761905Y-76454819D02*
X111761905Y-76692914D01*
X111523810Y-76597676D02*
X111761905Y-76692914D01*
X111761905Y-76692914D02*
X112000000Y-76597676D01*
X111619048Y-76883390D02*
X111761905Y-76692914D01*
X111761905Y-76692914D02*
X111904762Y-76883390D01*
X107666666Y-53454819D02*
X107333333Y-52978628D01*
X107095238Y-53454819D02*
X107095238Y-52454819D01*
X107095238Y-52454819D02*
X107476190Y-52454819D01*
X107476190Y-52454819D02*
X107571428Y-52502438D01*
X107571428Y-52502438D02*
X107619047Y-52550057D01*
X107619047Y-52550057D02*
X107666666Y-52645295D01*
X107666666Y-52645295D02*
X107666666Y-52788152D01*
X107666666Y-52788152D02*
X107619047Y-52883390D01*
X107619047Y-52883390D02*
X107571428Y-52931009D01*
X107571428Y-52931009D02*
X107476190Y-52978628D01*
X107476190Y-52978628D02*
X107095238Y-52978628D01*
X108095238Y-52931009D02*
X108428571Y-52931009D01*
X108571428Y-53454819D02*
X108095238Y-53454819D01*
X108095238Y-53454819D02*
X108095238Y-52454819D01*
X108095238Y-52454819D02*
X108571428Y-52454819D01*
X109333333Y-52931009D02*
X109000000Y-52931009D01*
X109000000Y-53454819D02*
X109000000Y-52454819D01*
X109000000Y-52454819D02*
X109476190Y-52454819D01*
X110000000Y-52454819D02*
X110000000Y-52692914D01*
X109761905Y-52597676D02*
X110000000Y-52692914D01*
X110000000Y-52692914D02*
X110238095Y-52597676D01*
X109857143Y-52883390D02*
X110000000Y-52692914D01*
X110000000Y-52692914D02*
X110142857Y-52883390D01*
X110761905Y-52454819D02*
X110761905Y-52692914D01*
X110523810Y-52597676D02*
X110761905Y-52692914D01*
X110761905Y-52692914D02*
X111000000Y-52597676D01*
X110619048Y-52883390D02*
X110761905Y-52692914D01*
X110761905Y-52692914D02*
X110904762Y-52883390D01*
X83666666Y-53454819D02*
X83333333Y-52978628D01*
X83095238Y-53454819D02*
X83095238Y-52454819D01*
X83095238Y-52454819D02*
X83476190Y-52454819D01*
X83476190Y-52454819D02*
X83571428Y-52502438D01*
X83571428Y-52502438D02*
X83619047Y-52550057D01*
X83619047Y-52550057D02*
X83666666Y-52645295D01*
X83666666Y-52645295D02*
X83666666Y-52788152D01*
X83666666Y-52788152D02*
X83619047Y-52883390D01*
X83619047Y-52883390D02*
X83571428Y-52931009D01*
X83571428Y-52931009D02*
X83476190Y-52978628D01*
X83476190Y-52978628D02*
X83095238Y-52978628D01*
X84095238Y-52931009D02*
X84428571Y-52931009D01*
X84571428Y-53454819D02*
X84095238Y-53454819D01*
X84095238Y-53454819D02*
X84095238Y-52454819D01*
X84095238Y-52454819D02*
X84571428Y-52454819D01*
X85333333Y-52931009D02*
X85000000Y-52931009D01*
X85000000Y-53454819D02*
X85000000Y-52454819D01*
X85000000Y-52454819D02*
X85476190Y-52454819D01*
X86000000Y-52454819D02*
X86000000Y-52692914D01*
X85761905Y-52597676D02*
X86000000Y-52692914D01*
X86000000Y-52692914D02*
X86238095Y-52597676D01*
X85857143Y-52883390D02*
X86000000Y-52692914D01*
X86000000Y-52692914D02*
X86142857Y-52883390D01*
X86761905Y-52454819D02*
X86761905Y-52692914D01*
X86523810Y-52597676D02*
X86761905Y-52692914D01*
X86761905Y-52692914D02*
X87000000Y-52597676D01*
X86619048Y-52883390D02*
X86761905Y-52692914D01*
X86761905Y-52692914D02*
X86904762Y-52883390D01*
X96434819Y-70571904D02*
X97244342Y-70571904D01*
X97244342Y-70571904D02*
X97339580Y-70524285D01*
X97339580Y-70524285D02*
X97387200Y-70476666D01*
X97387200Y-70476666D02*
X97434819Y-70381428D01*
X97434819Y-70381428D02*
X97434819Y-70190952D01*
X97434819Y-70190952D02*
X97387200Y-70095714D01*
X97387200Y-70095714D02*
X97339580Y-70048095D01*
X97339580Y-70048095D02*
X97244342Y-70000476D01*
X97244342Y-70000476D02*
X96434819Y-70000476D01*
X97434819Y-69000476D02*
X97434819Y-69571904D01*
X97434819Y-69286190D02*
X96434819Y-69286190D01*
X96434819Y-69286190D02*
X96577676Y-69381428D01*
X96577676Y-69381428D02*
X96672914Y-69476666D01*
X96672914Y-69476666D02*
X96720533Y-69571904D01*
X90304819Y-69596666D02*
X89828628Y-69929999D01*
X90304819Y-70168094D02*
X89304819Y-70168094D01*
X89304819Y-70168094D02*
X89304819Y-69787142D01*
X89304819Y-69787142D02*
X89352438Y-69691904D01*
X89352438Y-69691904D02*
X89400057Y-69644285D01*
X89400057Y-69644285D02*
X89495295Y-69596666D01*
X89495295Y-69596666D02*
X89638152Y-69596666D01*
X89638152Y-69596666D02*
X89733390Y-69644285D01*
X89733390Y-69644285D02*
X89781009Y-69691904D01*
X89781009Y-69691904D02*
X89828628Y-69787142D01*
X89828628Y-69787142D02*
X89828628Y-70168094D01*
X89638152Y-68739523D02*
X90304819Y-68739523D01*
X89257200Y-68977618D02*
X89971485Y-69215713D01*
X89971485Y-69215713D02*
X89971485Y-68596666D01*
X102953333Y-63994819D02*
X102620000Y-63518628D01*
X102381905Y-63994819D02*
X102381905Y-62994819D01*
X102381905Y-62994819D02*
X102762857Y-62994819D01*
X102762857Y-62994819D02*
X102858095Y-63042438D01*
X102858095Y-63042438D02*
X102905714Y-63090057D01*
X102905714Y-63090057D02*
X102953333Y-63185295D01*
X102953333Y-63185295D02*
X102953333Y-63328152D01*
X102953333Y-63328152D02*
X102905714Y-63423390D01*
X102905714Y-63423390D02*
X102858095Y-63471009D01*
X102858095Y-63471009D02*
X102762857Y-63518628D01*
X102762857Y-63518628D02*
X102381905Y-63518628D01*
X103286667Y-62994819D02*
X103905714Y-62994819D01*
X103905714Y-62994819D02*
X103572381Y-63375771D01*
X103572381Y-63375771D02*
X103715238Y-63375771D01*
X103715238Y-63375771D02*
X103810476Y-63423390D01*
X103810476Y-63423390D02*
X103858095Y-63471009D01*
X103858095Y-63471009D02*
X103905714Y-63566247D01*
X103905714Y-63566247D02*
X103905714Y-63804342D01*
X103905714Y-63804342D02*
X103858095Y-63899580D01*
X103858095Y-63899580D02*
X103810476Y-63947200D01*
X103810476Y-63947200D02*
X103715238Y-63994819D01*
X103715238Y-63994819D02*
X103429524Y-63994819D01*
X103429524Y-63994819D02*
X103334286Y-63947200D01*
X103334286Y-63947200D02*
X103286667Y-63899580D01*
X91953333Y-60154819D02*
X91620000Y-59678628D01*
X91381905Y-60154819D02*
X91381905Y-59154819D01*
X91381905Y-59154819D02*
X91762857Y-59154819D01*
X91762857Y-59154819D02*
X91858095Y-59202438D01*
X91858095Y-59202438D02*
X91905714Y-59250057D01*
X91905714Y-59250057D02*
X91953333Y-59345295D01*
X91953333Y-59345295D02*
X91953333Y-59488152D01*
X91953333Y-59488152D02*
X91905714Y-59583390D01*
X91905714Y-59583390D02*
X91858095Y-59631009D01*
X91858095Y-59631009D02*
X91762857Y-59678628D01*
X91762857Y-59678628D02*
X91381905Y-59678628D01*
X92334286Y-59250057D02*
X92381905Y-59202438D01*
X92381905Y-59202438D02*
X92477143Y-59154819D01*
X92477143Y-59154819D02*
X92715238Y-59154819D01*
X92715238Y-59154819D02*
X92810476Y-59202438D01*
X92810476Y-59202438D02*
X92858095Y-59250057D01*
X92858095Y-59250057D02*
X92905714Y-59345295D01*
X92905714Y-59345295D02*
X92905714Y-59440533D01*
X92905714Y-59440533D02*
X92858095Y-59583390D01*
X92858095Y-59583390D02*
X92286667Y-60154819D01*
X92286667Y-60154819D02*
X92905714Y-60154819D01*
X87763333Y-59994819D02*
X87430000Y-59518628D01*
X87191905Y-59994819D02*
X87191905Y-58994819D01*
X87191905Y-58994819D02*
X87572857Y-58994819D01*
X87572857Y-58994819D02*
X87668095Y-59042438D01*
X87668095Y-59042438D02*
X87715714Y-59090057D01*
X87715714Y-59090057D02*
X87763333Y-59185295D01*
X87763333Y-59185295D02*
X87763333Y-59328152D01*
X87763333Y-59328152D02*
X87715714Y-59423390D01*
X87715714Y-59423390D02*
X87668095Y-59471009D01*
X87668095Y-59471009D02*
X87572857Y-59518628D01*
X87572857Y-59518628D02*
X87191905Y-59518628D01*
X88715714Y-59994819D02*
X88144286Y-59994819D01*
X88430000Y-59994819D02*
X88430000Y-58994819D01*
X88430000Y-58994819D02*
X88334762Y-59137676D01*
X88334762Y-59137676D02*
X88239524Y-59232914D01*
X88239524Y-59232914D02*
X88144286Y-59280533D01*
X91858571Y-74074819D02*
X91858571Y-73074819D01*
X91858571Y-73074819D02*
X92191904Y-73789104D01*
X92191904Y-73789104D02*
X92525237Y-73074819D01*
X92525237Y-73074819D02*
X92525237Y-74074819D01*
X93191904Y-73074819D02*
X93382380Y-73074819D01*
X93382380Y-73074819D02*
X93477618Y-73122438D01*
X93477618Y-73122438D02*
X93572856Y-73217676D01*
X93572856Y-73217676D02*
X93620475Y-73408152D01*
X93620475Y-73408152D02*
X93620475Y-73741485D01*
X93620475Y-73741485D02*
X93572856Y-73931961D01*
X93572856Y-73931961D02*
X93477618Y-74027200D01*
X93477618Y-74027200D02*
X93382380Y-74074819D01*
X93382380Y-74074819D02*
X93191904Y-74074819D01*
X93191904Y-74074819D02*
X93096666Y-74027200D01*
X93096666Y-74027200D02*
X93001428Y-73931961D01*
X93001428Y-73931961D02*
X92953809Y-73741485D01*
X92953809Y-73741485D02*
X92953809Y-73408152D01*
X92953809Y-73408152D02*
X93001428Y-73217676D01*
X93001428Y-73217676D02*
X93096666Y-73122438D01*
X93096666Y-73122438D02*
X93191904Y-73074819D01*
X94001428Y-74027200D02*
X94144285Y-74074819D01*
X94144285Y-74074819D02*
X94382380Y-74074819D01*
X94382380Y-74074819D02*
X94477618Y-74027200D01*
X94477618Y-74027200D02*
X94525237Y-73979580D01*
X94525237Y-73979580D02*
X94572856Y-73884342D01*
X94572856Y-73884342D02*
X94572856Y-73789104D01*
X94572856Y-73789104D02*
X94525237Y-73693866D01*
X94525237Y-73693866D02*
X94477618Y-73646247D01*
X94477618Y-73646247D02*
X94382380Y-73598628D01*
X94382380Y-73598628D02*
X94191904Y-73551009D01*
X94191904Y-73551009D02*
X94096666Y-73503390D01*
X94096666Y-73503390D02*
X94049047Y-73455771D01*
X94049047Y-73455771D02*
X94001428Y-73360533D01*
X94001428Y-73360533D02*
X94001428Y-73265295D01*
X94001428Y-73265295D02*
X94049047Y-73170057D01*
X94049047Y-73170057D02*
X94096666Y-73122438D01*
X94096666Y-73122438D02*
X94191904Y-73074819D01*
X94191904Y-73074819D02*
X94429999Y-73074819D01*
X94429999Y-73074819D02*
X94572856Y-73122438D01*
X95334761Y-73551009D02*
X95001428Y-73551009D01*
X95001428Y-74074819D02*
X95001428Y-73074819D01*
X95001428Y-73074819D02*
X95477618Y-73074819D01*
X95858571Y-73551009D02*
X96191904Y-73551009D01*
X96334761Y-74074819D02*
X95858571Y-74074819D01*
X95858571Y-74074819D02*
X95858571Y-73074819D01*
X95858571Y-73074819D02*
X96334761Y-73074819D01*
X96620476Y-73074819D02*
X97191904Y-73074819D01*
X96906190Y-74074819D02*
X96906190Y-73074819D01*
X98049047Y-74074819D02*
X97477619Y-74074819D01*
X97763333Y-74074819D02*
X97763333Y-73074819D01*
X97763333Y-73074819D02*
X97668095Y-73217676D01*
X97668095Y-73217676D02*
X97572857Y-73312914D01*
X97572857Y-73312914D02*
X97477619Y-73360533D01*
X81596666Y-58074819D02*
X81596666Y-58789104D01*
X81596666Y-58789104D02*
X81549047Y-58931961D01*
X81549047Y-58931961D02*
X81453809Y-59027200D01*
X81453809Y-59027200D02*
X81310952Y-59074819D01*
X81310952Y-59074819D02*
X81215714Y-59074819D01*
X82596666Y-59074819D02*
X82025238Y-59074819D01*
X82310952Y-59074819D02*
X82310952Y-58074819D01*
X82310952Y-58074819D02*
X82215714Y-58217676D01*
X82215714Y-58217676D02*
X82120476Y-58312914D01*
X82120476Y-58312914D02*
X82025238Y-58360533D01*
X97261905Y-55454819D02*
X97261905Y-54454819D01*
X97261905Y-54454819D02*
X97500000Y-54454819D01*
X97500000Y-54454819D02*
X97642857Y-54502438D01*
X97642857Y-54502438D02*
X97738095Y-54597676D01*
X97738095Y-54597676D02*
X97785714Y-54692914D01*
X97785714Y-54692914D02*
X97833333Y-54883390D01*
X97833333Y-54883390D02*
X97833333Y-55026247D01*
X97833333Y-55026247D02*
X97785714Y-55216723D01*
X97785714Y-55216723D02*
X97738095Y-55311961D01*
X97738095Y-55311961D02*
X97642857Y-55407200D01*
X97642857Y-55407200D02*
X97500000Y-55454819D01*
X97500000Y-55454819D02*
X97261905Y-55454819D01*
X98785714Y-55454819D02*
X98214286Y-55454819D01*
X98500000Y-55454819D02*
X98500000Y-54454819D01*
X98500000Y-54454819D02*
X98404762Y-54597676D01*
X98404762Y-54597676D02*
X98309524Y-54692914D01*
X98309524Y-54692914D02*
X98214286Y-54740533D01*
X113289580Y-64786666D02*
X113337200Y-64834285D01*
X113337200Y-64834285D02*
X113384819Y-64977142D01*
X113384819Y-64977142D02*
X113384819Y-65072380D01*
X113384819Y-65072380D02*
X113337200Y-65215237D01*
X113337200Y-65215237D02*
X113241961Y-65310475D01*
X113241961Y-65310475D02*
X113146723Y-65358094D01*
X113146723Y-65358094D02*
X112956247Y-65405713D01*
X112956247Y-65405713D02*
X112813390Y-65405713D01*
X112813390Y-65405713D02*
X112622914Y-65358094D01*
X112622914Y-65358094D02*
X112527676Y-65310475D01*
X112527676Y-65310475D02*
X112432438Y-65215237D01*
X112432438Y-65215237D02*
X112384819Y-65072380D01*
X112384819Y-65072380D02*
X112384819Y-64977142D01*
X112384819Y-64977142D02*
X112432438Y-64834285D01*
X112432438Y-64834285D02*
X112480057Y-64786666D01*
X112480057Y-64405713D02*
X112432438Y-64358094D01*
X112432438Y-64358094D02*
X112384819Y-64262856D01*
X112384819Y-64262856D02*
X112384819Y-64024761D01*
X112384819Y-64024761D02*
X112432438Y-63929523D01*
X112432438Y-63929523D02*
X112480057Y-63881904D01*
X112480057Y-63881904D02*
X112575295Y-63834285D01*
X112575295Y-63834285D02*
X112670533Y-63834285D01*
X112670533Y-63834285D02*
X112813390Y-63881904D01*
X112813390Y-63881904D02*
X113384819Y-64453332D01*
X113384819Y-64453332D02*
X113384819Y-63834285D01*
X102763333Y-55479580D02*
X102715714Y-55527200D01*
X102715714Y-55527200D02*
X102572857Y-55574819D01*
X102572857Y-55574819D02*
X102477619Y-55574819D01*
X102477619Y-55574819D02*
X102334762Y-55527200D01*
X102334762Y-55527200D02*
X102239524Y-55431961D01*
X102239524Y-55431961D02*
X102191905Y-55336723D01*
X102191905Y-55336723D02*
X102144286Y-55146247D01*
X102144286Y-55146247D02*
X102144286Y-55003390D01*
X102144286Y-55003390D02*
X102191905Y-54812914D01*
X102191905Y-54812914D02*
X102239524Y-54717676D01*
X102239524Y-54717676D02*
X102334762Y-54622438D01*
X102334762Y-54622438D02*
X102477619Y-54574819D01*
X102477619Y-54574819D02*
X102572857Y-54574819D01*
X102572857Y-54574819D02*
X102715714Y-54622438D01*
X102715714Y-54622438D02*
X102763333Y-54670057D01*
X103715714Y-55574819D02*
X103144286Y-55574819D01*
X103430000Y-55574819D02*
X103430000Y-54574819D01*
X103430000Y-54574819D02*
X103334762Y-54717676D01*
X103334762Y-54717676D02*
X103239524Y-54812914D01*
X103239524Y-54812914D02*
X103144286Y-54860533D01*
D12*
%TO.C,U1*%
X97980000Y-72460000D02*
X108260000Y-72460000D01*
X108260000Y-72460000D02*
X108260000Y-67160000D01*
X97980000Y-70810000D02*
X97980000Y-72460000D01*
X97980000Y-67160000D02*
X97980000Y-68810000D01*
X108260000Y-67160000D02*
X97980000Y-67160000D01*
X97980000Y-68810000D02*
G75*
G02*
X97980000Y-70810000I0J-1000000D01*
G01*
%TO.C,R4*%
X87930000Y-66560000D02*
X87930000Y-67510000D01*
X88850000Y-67510000D02*
X87010000Y-67510000D01*
X87010000Y-67510000D02*
X87010000Y-71350000D01*
X88850000Y-71350000D02*
X88850000Y-67510000D01*
X87010000Y-71350000D02*
X88850000Y-71350000D01*
X87930000Y-72300000D02*
X87930000Y-71350000D01*
%TO.C,R3*%
X105990000Y-61620000D02*
X105040000Y-61620000D01*
X105040000Y-62540000D02*
X105040000Y-60700000D01*
X105040000Y-60700000D02*
X101200000Y-60700000D01*
X101200000Y-62540000D02*
X105040000Y-62540000D01*
X101200000Y-60700000D02*
X101200000Y-62540000D01*
X100250000Y-61620000D02*
X101200000Y-61620000D01*
%TO.C,R2*%
X89250000Y-61620000D02*
X90200000Y-61620000D01*
X90200000Y-60700000D02*
X90200000Y-62540000D01*
X90200000Y-62540000D02*
X94040000Y-62540000D01*
X94040000Y-60700000D02*
X90200000Y-60700000D01*
X94040000Y-62540000D02*
X94040000Y-60700000D01*
X94990000Y-61620000D02*
X94040000Y-61620000D01*
%TO.C,R1*%
X90800000Y-57620000D02*
X89850000Y-57620000D01*
X89850000Y-58540000D02*
X89850000Y-56700000D01*
X89850000Y-56700000D02*
X86010000Y-56700000D01*
X86010000Y-58540000D02*
X89850000Y-58540000D01*
X86010000Y-56700000D02*
X86010000Y-58540000D01*
X85060000Y-57620000D02*
X86010000Y-57620000D01*
%TO.C,MOSFET1*%
X95780000Y-71150000D02*
X95780000Y-67550000D01*
X95768478Y-71188478D02*
G75*
G02*
X91329999Y-69350000I-1838478J1838478D01*
G01*
X91330000Y-69350000D02*
G75*
G02*
X95768478Y-67511522I2600000J0D01*
G01*
%TO.C,J1*%
X80600000Y-62890000D02*
X80600000Y-70570000D01*
X80600000Y-62890000D02*
X83260000Y-62890000D01*
X80600000Y-70570000D02*
X83260000Y-70570000D01*
X81930000Y-60290000D02*
X83260000Y-60290000D01*
X83260000Y-60290000D02*
X83260000Y-61620000D01*
X83260000Y-62890000D02*
X83260000Y-70570000D01*
%TO.C,D1*%
X97220000Y-58856000D02*
X97220000Y-58700000D01*
X97220000Y-56540000D02*
X97220000Y-56384000D01*
X97220000Y-58855516D02*
G75*
G02*
X93988603Y-58700061I-1560000J1235516D01*
G01*
X96700961Y-58700000D02*
G75*
G02*
X94619090Y-58700049I-1040961J1080000D01*
G01*
X94619090Y-56539951D02*
G75*
G02*
X96700961Y-56540000I1040910J-1080049D01*
G01*
X93988603Y-56539939D02*
G75*
G02*
X97220000Y-56384484I1671397J-1080061D01*
G01*
%TO.C,C2*%
X109455000Y-64174775D02*
X109455000Y-63674775D01*
X109205000Y-63924775D02*
X109705000Y-63924775D01*
X113550000Y-61370000D02*
G75*
G02*
X108310000Y-61370000I-2620000J0D01*
G01*
X108310000Y-61370000D02*
G75*
G02*
X113550000Y-61370000I2620000J0D01*
G01*
%TO.C,C1*%
X100310000Y-56250000D02*
X100310000Y-56565000D01*
X100310000Y-56250000D02*
X105550000Y-56250000D01*
X100310000Y-58675000D02*
X100310000Y-58990000D01*
X100310000Y-58990000D02*
X105550000Y-58990000D01*
X105550000Y-56250000D02*
X105550000Y-56565000D01*
X105550000Y-58675000D02*
X105550000Y-58990000D01*
%TD*%
M02*
